<?xml version="1.0" standalone="no"?>
<!DOCTYPE svg PUBLIC "-//W3C//DTD SVG 20010904//EN"
 "http://www.w3.org/TR/2001/REC-SVG-20010904/DTD/svg10.dtd">
<svg version="1.0" xmlns="http://www.w3.org/2000/svg"
 width="260.000000pt" height="260.000000pt" viewBox="0 0 260.000000 260.000000"
 preserveAspectRatio="xMidYMid meet">
<metadata>
Created by potrace 1.11, written by Peter Selinger 2001-2013
</metadata>
<g transform="translate(0.000000,260.000000) scale(0.100000,-0.100000)"
fill="#000000" stroke="none">
<path d="M1048 2595 c-1 -1 -43 -6 -92 -9 -49 -4 -92 -8 -95 -10 -3 -2 -31 -7
-61 -10 -30 -4 -91 -16 -135 -27 -44 -11 -87 -22 -96 -24 -25 -5 -118 -46
-169 -73 -178 -96 -287 -250 -344 -485 -44 -179 -51 -277 -51 -662 1 -360 8
-457 47 -635 68 -310 234 -490 536 -580 37 -10 85 -22 107 -26 22 -3 42 -7 45
-9 5 -3 51 -11 120 -21 105 -14 224 -19 480 -18 252 0 316 4 439 23 522 80
739 297 803 802 21 168 16 891 -7 962 -2 6 -6 35 -9 63 -7 64 -47 204 -80 278
-90 204 -263 332 -541 401 -72 18 -162 36 -200 40 -39 4 -83 9 -100 12 -37 5
-592 13 -597 8z"/>
</g>
</svg>
